<?xml version="1.0" encoding="UTF-8"?>
<svg id="Vrstva_2" data-name="Vrstva 2" xmlns="http://www.w3.org/2000/svg" viewBox="0 0 889.92 586.76">
  <defs>
    <style>
      .cls-1 {
        fill-rule: evenodd;
        stroke-width: 0px;
      }
    </style>
  </defs>
  <g id="Vrstva_1-2" data-name="Vrstva 1">
    <g id="TeepCo">
      <g id="logo">
        <path class="cls-1" d="m347.73,104.47l7.79,13.48-130.91,226.74c-.94,1.61-2.99,2.17-4.61,1.23l-5.84-3.37c-1.61-.93-2.16-2.99-1.23-4.61l134.8-233.49ZM307.94,1.15c1.62-.93,3.67-.38,4.61,1.23l193.73,335.57c.94,1.61.38,3.67-1.23,4.61l-5.84,3.37c-1.61.93-3.67.38-4.6-1.23L300.87,9.13c-.93-1.61-.38-3.67,1.23-4.61l5.84-3.37Zm55.75,75.64L406.67,2.39c.93-1.61,2.99-2.17,4.6-1.23l5.84,3.37c1.61.93,2.17,2.99,1.23,4.61l-46.86,81.15-7.79-13.48Z"/>
      </g>
    </g>
  </g>
</svg>