<?xml version="1.0" encoding="UTF-8" standalone="no"?>
<!DOCTYPE svg PUBLIC "-//W3C//DTD SVG 1.1//EN" "http://www.w3.org/Graphics/SVG/1.1/DTD/svg11.dtd">
<svg width="100%" height="100%" viewBox="0 0 91 60" version="1.1" xmlns="http://www.w3.org/2000/svg" xmlns:xlink="http://www.w3.org/1999/xlink" xml:space="preserve" style="fill-rule:evenodd;clip-rule:evenodd;stroke-linejoin:round;stroke-miterlimit:1.41421;">
    <g id="TeepCo" transform="matrix(0.52907,0,0,0.422535,105.814,-24.507)">
        <rect x="-200" y="58" width="172" height="142" style="fill:none;"/>
        <g id="logo" transform="matrix(2.52538,0,0,2.2981,259.083,-220.669)">
            <path d="M-147.391,182.185L-147.935,182.185C-147.968,182.182 -147.976,182.183 -148.008,182.17C-148.091,182.137 -148.158,182.045 -148.183,181.93C-148.192,181.886 -148.191,181.874 -148.193,181.83L-148.193,161.057C-148.191,161.012 -148.192,161 -148.183,160.957C-148.158,160.842 -148.091,160.75 -148.008,160.716C-147.976,160.703 -147.968,160.705 -147.935,160.702L-147.391,160.702C-147.354,160.705 -147.354,160.705 -147.318,160.716C-147.288,160.732 -147.279,160.734 -147.251,160.758C-147.2,160.804 -147.161,160.875 -147.143,160.957C-147.134,161 -147.135,161.012 -147.133,161.057L-147.133,162.566C-147.094,162.501 -147.055,162.438 -147.014,162.374C-146.965,162.3 -146.915,162.226 -146.864,162.154C-146.656,161.87 -146.431,161.613 -146.186,161.393C-145.795,161.043 -145.362,160.784 -144.91,160.626C-144.492,160.48 -144.06,160.418 -143.629,160.425C-142.966,160.436 -142.303,160.632 -141.718,161.071C-141.118,161.522 -140.628,162.208 -140.264,163C-139.875,163.849 -139.635,164.812 -139.495,165.793C-139.402,166.447 -139.35,167.113 -139.332,167.778C-139.318,168.304 -139.316,168.832 -139.332,169.358C-139.343,169.707 -139.363,170.056 -139.393,170.404C-139.419,170.7 -139.452,170.995 -139.495,171.288C-139.531,171.537 -139.574,171.784 -139.624,172.028C-139.918,173.462 -140.485,174.854 -141.378,175.737C-141.577,175.933 -141.79,176.102 -142.014,176.239C-142.33,176.431 -142.665,176.559 -143.007,176.629C-143.28,176.684 -143.557,176.7 -143.833,176.69C-144.066,176.682 -144.3,176.655 -144.531,176.607C-145.275,176.453 -145.992,176.066 -146.597,175.445C-146.763,175.274 -146.917,175.086 -147.063,174.884L-147.111,174.816L-147.133,174.783L-147.133,181.83C-147.135,181.874 -147.134,181.886 -147.143,181.93C-147.168,182.045 -147.235,182.137 -147.318,182.17L-147.391,182.185ZM-158.37,168.415L-158.365,169.204C-158.357,169.488 -158.338,169.77 -158.307,170.051C-158.228,170.766 -158.07,171.462 -157.837,172.111C-157.648,172.64 -157.408,173.136 -157.116,173.569C-156.571,174.378 -155.842,174.967 -155.05,175.168C-154.668,175.264 -154.276,175.266 -153.89,175.218C-153.426,175.16 -152.964,175.012 -152.548,174.716C-152.246,174.502 -151.972,174.218 -151.73,173.89C-151.598,173.711 -151.477,173.518 -151.363,173.318L-151.341,173.284C-151.319,173.258 -151.314,173.25 -151.289,173.23C-151.232,173.184 -151.163,173.171 -151.1,173.192C-151.066,173.203 -151.039,173.223 -151.011,173.248L-150.628,173.622C-150.601,173.652 -150.577,173.682 -150.559,173.722C-150.523,173.801 -150.511,173.898 -150.525,173.989C-150.532,174.03 -150.536,174.039 -150.549,174.076C-150.575,174.136 -150.576,174.135 -150.605,174.193C-150.714,174.399 -150.828,174.598 -150.953,174.786C-151.21,175.172 -151.503,175.51 -151.827,175.785C-152.507,176.361 -153.295,176.632 -154.088,176.683C-154.333,176.699 -154.58,176.697 -154.825,176.668C-155.188,176.625 -155.548,176.525 -155.894,176.366C-156.784,175.957 -157.577,175.171 -158.162,174.165C-158.821,173.031 -159.224,171.636 -159.367,170.203C-159.397,169.901 -159.416,169.597 -159.425,169.292C-159.434,168.951 -159.431,168.608 -159.43,168.266C-159.43,167.657 -159.392,167.047 -159.31,166.448C-159.203,165.665 -159.019,164.902 -158.76,164.188C-158.465,163.374 -158.072,162.626 -157.577,162.018C-157.369,161.762 -157.145,161.532 -156.907,161.33C-156.63,161.095 -156.335,160.898 -156.027,160.751C-155.618,160.556 -155.193,160.455 -154.761,160.428C-154.687,160.426 -154.612,160.424 -154.537,160.425C-154.008,160.437 -153.482,160.552 -152.987,160.816C-152.784,160.924 -152.588,161.055 -152.401,161.208C-151.499,161.947 -150.835,163.165 -150.5,164.524C-150.333,165.201 -150.243,165.911 -150.211,166.623C-150.189,167.101 -150.197,167.581 -150.197,168.06L-150.199,168.106C-150.206,168.153 -150.214,168.195 -150.231,168.237C-150.265,168.318 -150.322,168.378 -150.388,168.402L-150.455,168.415L-158.37,168.415ZM-168.771,168.415L-168.766,169.204C-168.758,169.488 -168.739,169.77 -168.707,170.051C-168.628,170.766 -168.471,171.462 -168.238,172.111C-168.048,172.64 -167.809,173.136 -167.517,173.569C-166.971,174.378 -166.243,174.967 -165.451,175.168C-165.069,175.264 -164.677,175.266 -164.29,175.218C-163.826,175.16 -163.365,175.012 -162.949,174.716C-162.647,174.502 -162.373,174.218 -162.131,173.89C-161.999,173.711 -161.878,173.518 -161.764,173.318L-161.742,173.284C-161.72,173.258 -161.715,173.25 -161.69,173.23C-161.633,173.184 -161.564,173.171 -161.5,173.192C-161.467,173.203 -161.44,173.223 -161.411,173.248L-161.028,173.622C-161.002,173.652 -160.978,173.682 -160.959,173.722C-160.923,173.801 -160.911,173.898 -160.926,173.989C-160.933,174.03 -160.937,174.039 -160.949,174.076C-160.976,174.136 -160.977,174.135 -161.006,174.193C-161.128,174.424 -161.257,174.646 -161.4,174.854C-161.645,175.212 -161.923,175.527 -162.228,175.785C-162.907,176.361 -163.696,176.632 -164.488,176.683C-164.734,176.699 -164.98,176.697 -165.225,176.668C-165.589,176.625 -165.948,176.525 -166.294,176.366C-167.184,175.957 -167.978,175.171 -168.563,174.165C-169.222,173.031 -169.625,171.636 -169.767,170.203C-169.798,169.901 -169.816,169.597 -169.825,169.292C-169.835,168.951 -169.831,168.608 -169.831,168.266C-169.83,167.657 -169.793,167.047 -169.711,166.448C-169.603,165.665 -169.419,164.902 -169.161,164.188C-168.866,163.374 -168.472,162.626 -167.978,162.018C-167.77,161.762 -167.545,161.532 -167.308,161.33C-167.031,161.095 -166.735,160.898 -166.427,160.751C-166.019,160.556 -165.594,160.455 -165.162,160.428C-165.087,160.426 -165.013,160.424 -164.938,160.425C-164.409,160.437 -163.883,160.552 -163.388,160.816C-163.185,160.924 -162.988,161.055 -162.801,161.208C-161.9,161.947 -161.236,163.165 -160.901,164.524C-160.734,165.201 -160.644,165.911 -160.612,166.623C-160.59,167.101 -160.597,167.581 -160.597,168.06L-160.599,168.106C-160.605,168.146 -160.605,168.157 -160.617,168.195C-160.643,168.282 -160.694,168.352 -160.757,168.388L-160.855,168.415L-168.771,168.415ZM-119.214,160.425C-119.038,160.431 -118.863,160.444 -118.688,160.471C-118.35,160.523 -118.016,160.622 -117.693,160.77C-117.348,160.928 -117.017,161.143 -116.708,161.407C-116.446,161.63 -116.2,161.89 -115.976,162.18C-115.201,163.183 -114.699,164.541 -114.455,165.955C-114.337,166.641 -114.282,167.341 -114.269,168.045C-114.267,168.359 -114.267,168.674 -114.269,168.989C-114.275,169.482 -114.3,169.974 -114.355,170.462C-114.453,171.336 -114.64,172.191 -114.928,172.983C-115.121,173.517 -115.36,174.021 -115.646,174.471C-115.999,175.028 -116.422,175.499 -116.89,175.862C-117.259,176.148 -117.657,176.363 -118.069,176.5C-118.495,176.642 -118.935,176.702 -119.373,176.692C-119.921,176.681 -120.467,176.558 -120.983,176.304C-121.514,176.044 -122.01,175.649 -122.44,175.148C-123.293,174.154 -123.85,172.753 -124.121,171.273C-124.253,170.552 -124.313,169.814 -124.327,169.072C-124.33,168.758 -124.329,168.444 -124.328,168.129C-124.318,167.422 -124.267,166.718 -124.152,166.028C-123.916,164.606 -123.42,163.242 -122.649,162.227C-122.424,161.931 -122.178,161.666 -121.916,161.437C-121.606,161.165 -121.273,160.944 -120.925,160.781C-120.628,160.641 -120.321,160.544 -120.01,160.487C-119.835,160.455 -119.659,160.438 -119.483,160.428C-119.393,160.425 -119.304,160.424 -119.214,160.425ZM-126.358,162.382L-126.902,162.382C-126.935,162.379 -126.944,162.381 -126.976,162.368C-127.036,162.343 -127.088,162.288 -127.121,162.215C-127.139,162.176 -127.14,162.164 -127.151,162.121C-127.169,161.994 -127.177,161.864 -127.19,161.736C-127.242,161.277 -127.313,160.822 -127.418,160.38C-127.606,159.599 -127.899,158.864 -128.319,158.274C-128.458,158.078 -128.61,157.899 -128.772,157.74C-129.448,157.077 -130.277,156.794 -131.096,156.719C-131.484,156.683 -131.877,156.685 -132.263,156.759C-132.864,156.874 -133.442,157.165 -133.943,157.636C-134.165,157.845 -134.37,158.086 -134.558,158.35C-134.729,158.59 -134.886,158.849 -135.028,159.123C-135.136,159.332 -135.236,159.551 -135.327,159.776C-135.894,161.183 -136.084,162.805 -136.097,164.396C-136.1,165.471 -136.101,166.547 -136.097,167.622C-136.092,167.995 -136.08,168.368 -136.052,168.74C-136.033,169.005 -136.007,169.269 -135.973,169.531C-135.78,171.025 -135.336,172.507 -134.545,173.591C-134.361,173.842 -134.161,174.07 -133.947,174.27C-133.436,174.75 -132.851,175.056 -132.238,175.174C-131.981,175.223 -131.721,175.239 -131.462,175.233C-131.26,175.229 -131.058,175.214 -130.857,175.186C-130.024,175.071 -129.191,174.721 -128.537,173.976C-128.397,173.815 -128.266,173.639 -128.147,173.448C-127.733,172.786 -127.472,171.971 -127.319,171.129C-127.242,170.704 -127.193,170.272 -127.159,169.837L-127.152,169.786C-127.141,169.743 -127.14,169.731 -127.122,169.691C-127.089,169.617 -127.037,169.561 -126.976,169.536C-126.944,169.523 -126.935,169.525 -126.902,169.521L-126.358,169.521L-126.319,169.525C-126.306,169.529 -126.293,169.533 -126.281,169.537C-126.249,169.555 -126.239,169.557 -126.211,169.585C-126.157,169.636 -126.119,169.715 -126.105,169.804C-126.098,169.851 -126.1,169.863 -126.101,169.911C-126.11,170.043 -126.121,170.174 -126.133,170.306C-126.193,170.924 -126.286,171.536 -126.433,172.127C-126.658,173.036 -127.008,173.886 -127.489,174.585C-127.993,175.317 -128.623,175.862 -129.312,176.201C-129.879,176.48 -130.477,176.623 -131.077,176.673C-131.544,176.711 -132.015,176.7 -132.478,176.603C-133.197,176.452 -133.888,176.096 -134.497,175.546C-134.76,175.308 -135.007,175.037 -135.234,174.736C-136.192,173.464 -136.755,171.713 -137,169.932C-137.099,169.209 -137.145,168.476 -137.156,167.741C-137.165,166.59 -137.162,165.44 -137.157,164.29C-137.151,163.81 -137.132,163.331 -137.092,162.854C-137.066,162.549 -137.032,162.245 -136.989,161.944C-136.741,160.2 -136.193,158.486 -135.26,157.232C-135.032,156.926 -134.783,156.649 -134.518,156.407C-133.906,155.847 -133.209,155.484 -132.484,155.33C-132.02,155.232 -131.549,155.22 -131.081,155.259C-130.484,155.308 -129.889,155.451 -129.325,155.728C-128.58,156.094 -127.902,156.701 -127.377,157.519C-126.91,158.245 -126.58,159.116 -126.374,160.04C-126.232,160.676 -126.148,161.331 -126.101,161.993L-126.1,162.046C-126.105,162.094 -126.104,162.106 -126.116,162.152C-126.144,162.253 -126.205,162.334 -126.281,162.366L-126.358,162.382ZM-175.348,176.416L-175.892,176.416C-175.924,176.413 -175.933,176.414 -175.965,176.402C-176.048,176.368 -176.115,176.276 -176.139,176.161C-176.149,176.118 -176.15,176.061 -176.15,176.061L-176.15,156.974L-181.233,156.974L-181.27,156.971C-181.302,156.961 -181.311,156.961 -181.34,156.942C-181.408,156.9 -181.46,156.817 -181.481,156.719C-181.49,156.676 -181.489,156.664 -181.491,156.619L-181.491,155.87C-181.489,155.826 -181.49,155.814 -181.481,155.77C-181.456,155.655 -181.389,155.563 -181.306,155.53C-181.274,155.517 -181.233,155.515 -181.233,155.515L-169.97,155.519C-169.97,155.519 -169.929,155.529 -169.899,155.547C-169.831,155.59 -169.78,155.672 -169.759,155.77C-169.749,155.814 -169.751,155.826 -169.748,155.87L-169.748,156.619C-169.751,156.664 -169.749,156.676 -169.759,156.719C-169.783,156.834 -169.85,156.926 -169.934,156.96L-170.006,156.974L-175.09,156.974L-175.09,176.061L-175.092,176.111C-175.092,176.111 -175.099,176.167 -175.113,176.208C-175.144,176.301 -175.204,176.373 -175.275,176.402L-175.348,176.416ZM-119.358,161.884C-119.754,161.893 -120.147,161.968 -120.524,162.14C-120.694,162.218 -120.859,162.314 -121.018,162.428C-121.455,162.742 -121.834,163.189 -122.148,163.71C-122.582,164.429 -122.891,165.274 -123.067,166.175C-123.17,166.703 -123.23,167.246 -123.254,167.791C-123.27,168.144 -123.268,168.496 -123.268,168.849C-123.267,169.635 -123.193,170.42 -123.024,171.172C-122.861,171.905 -122.613,172.61 -122.274,173.221C-121.812,174.052 -121.174,174.694 -120.446,175.004C-120.069,175.164 -119.676,175.233 -119.283,175.234C-118.903,175.236 -118.521,175.17 -118.156,175.021C-117.953,174.939 -117.756,174.831 -117.568,174.697C-116.766,174.128 -116.152,173.114 -115.788,171.989C-115.642,171.538 -115.535,171.064 -115.462,170.582C-115.367,169.962 -115.329,169.329 -115.328,168.697C-115.328,168.407 -115.326,168.118 -115.337,167.829C-115.35,167.475 -115.38,167.122 -115.428,166.773C-115.512,166.164 -115.653,165.569 -115.847,165.009C-116.05,164.425 -116.314,163.878 -116.643,163.413C-116.847,163.126 -117.074,162.87 -117.321,162.654C-117.562,162.441 -117.822,162.269 -118.095,162.143C-118.462,161.974 -118.845,161.897 -119.231,161.884C-119.295,161.883 -119.295,161.883 -119.358,161.884ZM-143.763,161.884C-144.139,161.897 -144.513,161.961 -144.874,162.112C-145.293,162.288 -145.684,162.578 -146.018,162.967C-146.249,163.237 -146.451,163.551 -146.62,163.896C-146.836,164.334 -146.994,164.814 -147.119,165.313L-147.133,165.37L-147.133,172.265C-147.113,172.335 -147.092,172.404 -147.07,172.473C-146.988,172.726 -146.895,172.97 -146.783,173.2C-146.592,173.594 -146.354,173.943 -146.081,174.23C-145.797,174.529 -145.478,174.76 -145.14,174.921C-144.793,175.086 -144.43,175.178 -144.064,175.215C-143.729,175.249 -143.39,175.245 -143.058,175.164C-142.793,175.1 -142.533,174.985 -142.293,174.816C-142.043,174.64 -141.816,174.406 -141.619,174.132C-141.092,173.396 -140.789,172.416 -140.617,171.423C-140.516,170.838 -140.457,170.24 -140.425,169.641C-140.399,169.165 -140.389,168.687 -140.394,168.21C-140.397,167.838 -140.41,167.465 -140.436,167.094C-140.456,166.809 -140.483,166.525 -140.52,166.243C-140.547,166.032 -140.58,165.822 -140.618,165.614C-140.653,165.417 -140.696,165.223 -140.743,165.032C-141.001,163.989 -141.455,162.983 -142.158,162.411C-142.314,162.284 -142.48,162.18 -142.652,162.1C-142.937,161.968 -143.235,161.905 -143.536,161.887C-143.612,161.884 -143.687,161.883 -143.763,161.884ZM-165.044,161.884C-165.384,161.892 -165.721,161.955 -166.046,162.096C-166.947,162.486 -167.67,163.441 -168.127,164.558C-168.32,165.029 -168.466,165.534 -168.569,166.055C-168.624,166.334 -168.665,166.616 -168.7,166.9L-168.705,166.956L-161.659,166.956C-161.66,166.865 -161.664,166.774 -161.668,166.683C-161.684,166.393 -161.711,166.106 -161.755,165.821C-161.927,164.702 -162.337,163.615 -162.981,162.875C-163.125,162.71 -163.279,162.562 -163.442,162.434C-163.617,162.296 -163.803,162.183 -163.995,162.096C-164.3,161.958 -164.618,161.895 -164.938,161.884C-164.992,161.883 -164.991,161.883 -165.044,161.884ZM-154.643,161.884C-154.983,161.892 -155.321,161.955 -155.646,162.096C-156.546,162.486 -157.269,163.441 -157.727,164.558C-157.92,165.029 -158.066,165.534 -158.169,166.055C-158.224,166.334 -158.265,166.616 -158.299,166.9L-158.305,166.956L-151.259,166.956C-151.26,166.865 -151.264,166.774 -151.268,166.683C-151.282,166.422 -151.305,166.163 -151.342,165.906C-151.41,165.43 -151.521,164.967 -151.672,164.529C-151.889,163.899 -152.19,163.324 -152.58,162.875C-152.724,162.71 -152.879,162.562 -153.041,162.434C-153.217,162.296 -153.402,162.183 -153.594,162.096C-153.9,161.958 -154.217,161.895 -154.538,161.884C-154.591,161.883 -154.59,161.883 -154.643,161.884ZM-155.175,132.262L-154.579,133.682L-164.598,157.56C-164.67,157.73 -164.827,157.788 -164.951,157.69L-165.398,157.335C-165.521,157.237 -165.563,157.02 -165.492,156.85L-155.175,132.262ZM-158.22,121.382C-158.096,121.284 -157.939,121.342 -157.867,121.512L-143.04,156.85C-142.968,157.02 -143.011,157.237 -143.134,157.335L-143.581,157.69C-143.704,157.788 -143.862,157.73 -143.933,157.56L-158.761,122.222C-158.832,122.052 -158.79,121.835 -158.667,121.737L-158.22,121.382ZM-153.953,129.348L-150.664,121.512C-150.593,121.342 -150.435,121.284 -150.312,121.382L-149.865,121.737C-149.742,121.835 -149.699,122.052 -149.771,122.222L-153.357,130.768L-153.953,129.348Z"/>
        </g>
    </g>
</svg>
